<?xml version="1.0" standalone="no"?>
<!DOCTYPE svg PUBLIC "-//W3C//DTD SVG 20010904//EN"
 "http://www.w3.org/TR/2001/REC-SVG-20010904/DTD/svg10.dtd">
<svg version="1.0" xmlns="http://www.w3.org/2000/svg"
 width="500.000000pt" height="500.000000pt" viewBox="0 0 500.000000 500.000000"
 preserveAspectRatio="xMidYMid meet">

<g transform="translate(0.000000,500.000000) scale(0.100000,-0.100000)"
fill="#000000" stroke="none">
<path d="M2280 3870 c8 -5 15 -14 15 -19 0 -20 114 -131 129 -125 11 4 13 0 9
-15 -3 -12 -11 -21 -19 -21 -7 0 -16 -5 -20 -12 -5 -7 -3 -8 6 -3 7 4 36 7 63
6 l50 -1 -104 100 c-62 60 -112 100 -124 100 -16 0 -17 -2 -5 -10z"/>
<path d="M1640 3361 c-13 -25 -13 -31 2 -31 6 0 8 3 5 6 -3 4 -2 15 4 25 5 11
7 19 5 19 -3 0 -10 -9 -16 -19z"/>
<path d="M1617 3306 c-4 -10 -1 -13 8 -9 8 3 12 9 9 14 -7 12 -11 11 -17 -5z"/>
<path d="M2444 3312 c-6 -4 -14 -21 -18 -37 -8 -38 -64 -61 -94 -39 -27 21
-46 16 -82 -21 -32 -34 -33 -35 -21 -73 17 -51 -4 -99 -46 -104 -27 -3 -28 -4
-28 -68 0 -64 0 -65 28 -68 36 -4 66 -65 48 -94 -19 -30 -13 -52 23 -86 39
-36 52 -39 77 -16 16 14 21 14 58 -6 31 -15 41 -26 41 -45 0 -26 0 -26 79 -27
44 0 61 11 61 42 0 9 17 23 37 32 34 16 38 16 65 0 28 -16 28 -16 70 26 l42
42 -18 30 c-17 30 -17 32 1 63 13 21 28 33 46 35 28 3 28 4 25 70 -3 65 -4 67
-32 72 -21 4 -32 14 -43 43 -14 34 -14 39 1 56 23 25 21 32 -22 74 -42 41 -57
45 -82 22 -15 -14 -21 -14 -53 0 -28 12 -37 21 -37 40 0 14 -8 29 -19 35 -23
12 -91 13 -107 2z m157 -150 c70 -36 109 -96 116 -179 4 -50 1 -65 -24 -113
-40 -75 -94 -112 -172 -118 -71 -5 -121 10 -167 51 -51 44 -74 96 -74 164 1
173 168 275 321 195z"/>
<path d="M2438 3087 c-32 -17 -58 -35 -58 -39 0 -4 11 -10 25 -14 17 -4 41 3
80 26 51 29 55 33 38 46 -23 18 -19 18 -85 -19z"/>
<path d="M2516 3036 c-56 -32 -58 -34 -37 -45 19 -10 30 -7 82 25 44 26 57 39
47 45 -20 13 -29 11 -92 -25z"/>
<path d="M2362 2953 l3 -68 67 -35 68 -35 65 35 65 35 0 67 0 67 -59 -34 c-33
-19 -65 -35 -71 -35 -7 0 -38 16 -70 35 -32 19 -61 35 -64 35 -4 0 -6 -30 -4
-67z"/>
<path d="M1690 3250 c-12 -8 -10 -10 9 -10 16 0 40 -17 69 -47 25 -27 43 -41
40 -33 -3 8 1 29 9 45 13 27 13 28 -2 11 -8 -11 -15 -24 -15 -29 0 -4 -5 -5
-11 -2 -6 4 -8 14 -5 22 3 8 1 11 -4 8 -5 -3 -25 5 -43 19 -23 18 -37 22 -47
16z"/>
<path d="M1585 3203 c-4 -16 -9 -39 -11 -53 -5 -23 -3 -23 25 10 25 29 27 37
16 46 -8 6 -12 14 -8 17 3 4 2 7 -4 7 -6 0 -14 -12 -18 -27z"/>
<path d="M1607 3023 c-101 -127 -207 -274 -207 -287 0 -7 9 -25 21 -40 31 -39
69 -35 113 14 20 22 38 40 40 40 2 0 14 -30 26 -66 97 -303 359 -545 675 -626
74 -18 115 -22 230 -22 154 1 235 18 368 77 l68 30 -28 18 c-15 10 -29 23 -29
29 -1 5 -2 16 -3 23 0 8 -20 21 -42 30 -26 10 -40 21 -36 29 3 9 -9 13 -44 13
-26 1 -46 -2 -44 -5 2 -4 -10 -7 -28 -7 -18 -1 -77 -4 -133 -8 -110 -8 -220 8
-317 46 -151 60 -294 189 -366 332 -25 48 -41 90 -38 94 4 3 23 -12 43 -35 27
-32 43 -42 65 -42 37 0 71 33 67 65 -2 13 -65 101 -141 194 -130 161 -140 171
-172 171 -30 0 -40 -8 -88 -67z m1308 -872 c3 -6 -4 -9 -15 -8 -11 1 -20 5
-20 9 0 11 28 10 35 -1z"/>
<path d="M2780 2310 c-8 -5 -10 -10 -5 -10 6 0 17 5 25 10 8 5 11 10 5 10 -5
0 -17 -5 -25 -10z"/>
<path d="M2973 2174 l-28 -26 35 23 c46 29 45 29 32 29 -6 0 -24 -12 -39 -26z"/>
<path d="M3850 1885 c-7 -9 -14 -43 -14 -78 l-1 -62 43 -3 c54 -4 72 10 71 57
-1 74 -64 128 -99 86z m59 -8 c6 -8 8 -17 4 -20 -12 -12 -53 -7 -53 6 0 28 30
37 49 14z m-9 -87 c0 -16 -4 -30 -9 -30 -10 0 -21 47 -13 55 13 13 22 3 22
-25z"/>
<path d="M1101 1777 c-53 -27 -65 -60 -69 -178 -7 -197 23 -232 195 -227 l98
3 0 30 0 30 -98 5 c-109 6 -117 10 -117 72 l0 37 93 3 c91 3 92 3 92 28 0 25
-1 25 -92 28 l-93 3 0 37 c0 62 8 66 117 72 84 4 98 8 101 23 7 37 -16 47
-112 47 -52 0 -101 -6 -115 -13z"/>
<path d="M3267 1774 c-4 -4 -7 -83 -7 -176 l0 -170 29 -29 c50 -49 150 -36
139 18 -2 12 -14 19 -38 21 -54 5 -60 16 -60 103 l0 78 48 3 c43 3 47 5 47 28
0 23 -4 25 -47 28 l-47 3 -3 47 c-3 42 -6 47 -28 50 -14 2 -29 0 -33 -4z"/>
<path d="M1444 1671 c-42 -26 -54 -66 -54 -180 0 -100 7 -121 41 -121 28 0 33
18 36 123 1 56 7 105 14 113 16 19 73 18 90 -2 8 -10 15 -56 19 -122 5 -103 6
-107 29 -110 13 -2 28 2 32 10 5 7 9 56 9 109 0 108 11 129 68 129 43 0 52
-22 52 -132 0 -97 8 -118 42 -118 27 0 38 32 38 117 0 100 -13 145 -51 177
-38 32 -108 35 -155 7 -29 -18 -31 -18 -53 0 -32 26 -115 26 -157 0z"/>
<path d="M2002 1670 c-58 -36 -72 -84 -72 -251 0 -157 6 -178 50 -164 17 6 20
15 20 70 0 60 11 88 25 65 3 -5 23 -14 43 -20 108 -29 205 68 187 186 -5 34
-16 57 -45 87 -36 39 -41 41 -106 45 -56 2 -75 -1 -102 -18z m123 -54 c40 -17
55 -42 55 -93 -1 -41 -13 -63 -47 -81 -34 -19 -60 -14 -93 16 -61 54 -33 153
48 171 1 1 18 -5 37 -13z"/>
<path d="M2341 1676 c-8 -9 -11 -60 -9 -157 l3 -144 30 0 30 0 5 97 c6 110 19
133 79 144 45 8 64 29 50 55 -13 26 -60 24 -93 -2 l-27 -22 -15 22 c-17 24
-37 27 -53 7z"/>
<path d="M2629 1667 c-50 -33 -71 -80 -66 -150 6 -96 62 -148 162 -148 65 0
118 25 123 59 5 30 -17 36 -61 17 -52 -21 -91 -19 -123 8 -38 33 -24 47 45 47
32 0 79 3 105 6 l46 7 0 42 c0 48 -31 102 -70 122 -42 21 -122 16 -161 -10z
m138 -59 c29 -27 29 -48 1 -48 -13 0 -47 -3 -75 -6 -49 -6 -53 -5 -53 14 0 26
45 62 78 62 14 0 36 -10 49 -22z"/>
<path d="M2975 1678 c-32 -18 -44 -40 -45 -79 0 -52 24 -75 108 -99 65 -19 73
-24 70 -43 -4 -30 -63 -35 -119 -9 -50 23 -69 19 -69 -14 0 -29 32 -51 91 -62
98 -18 169 21 169 94 0 47 -26 69 -110 94 -62 19 -71 24 -68 43 2 17 11 23 40
25 20 2 51 -4 68 -13 39 -20 60 -13 60 20 0 20 -8 29 -35 41 -41 17 -132 18
-160 2z"/>
<path d="M3542 1670 c-38 -24 -71 -88 -72 -140 0 -49 38 -121 77 -143 70 -40
213 -13 213 39 0 32 -18 38 -63 19 -54 -22 -94 -19 -123 10 -14 14 -22 30 -19
35 3 6 30 10 58 10 86 0 158 12 164 27 12 30 -10 88 -47 125 -35 35 -42 38
-96 38 -42 0 -69 -6 -92 -20z m138 -60 c27 -27 26 -50 -2 -50 -13 0 -47 -3
-75 -6 -49 -6 -53 -5 -53 14 0 27 45 62 81 62 16 0 38 -9 49 -20z"/>
<path d="M3861 1676 c-8 -9 -11 -60 -9 -157 l3 -144 30 0 30 0 3 149 c2 113
-1 151 -10 158 -19 12 -34 10 -47 -6z"/>
<path d="M1370 1210 c0 -5 5 -10 11 -10 5 0 7 5 4 10 -3 6 -8 10 -11 10 -2 0
-4 -4 -4 -10z"/>
<path d="M2585 1210 c-3 -5 1 -10 10 -10 9 0 13 5 10 10 -3 6 -8 10 -10 10 -2
0 -7 -4 -10 -10z"/>
<path d="M2785 1210 c-3 -5 -1 -10 4 -10 6 0 11 5 11 10 0 6 -2 10 -4 10 -3 0
-8 -4 -11 -10z"/>
<path d="M3185 1210 c-3 -5 -1 -10 4 -10 6 0 11 5 11 10 0 6 -2 10 -4 10 -3 0
-8 -4 -11 -10z"/>
<path d="M963 1194 c-7 -18 20 -44 44 -44 18 0 16 -29 -2 -36 -8 -4 -23 0 -32
7 -14 12 -16 12 -11 -1 6 -21 52 -24 68 -6 16 20 1 41 -35 50 -38 10 -33 39 5
34 17 -3 30 -1 30 4 0 16 -60 8 -67 -8z"/>
<path d="M1490 1171 c0 -49 8 -71 25 -71 11 0 11 5 -1 28 -12 24 -12 28 1 38
14 10 14 12 0 18 -9 3 -13 10 -10 16 3 5 1 10 -4 10 -6 0 -11 -18 -11 -39z"/>
<path d="M1981 1198 c-1 -12 -9 -18 -26 -18 -31 0 -50 -32 -35 -60 12 -23 52
-27 69 -6 9 11 10 27 3 58 -6 24 -10 35 -11 26z m-6 -58 c0 -16 -6 -26 -18
-28 -19 -4 -32 20 -23 44 9 25 41 13 41 -16z"/>
<path d="M2732 1158 c2 -44 6 -53 23 -56 18 -2 18 -2 3 8 -21 13 -24 57 -5 62
9 2 7 8 -6 21 -17 18 -18 16 -15 -35z"/>
<path d="M3323 1160 c2 -46 5 -55 22 -58 18 -2 18 -2 3 8 -10 6 -18 22 -18 35
0 14 7 25 18 28 15 4 15 5 0 6 -9 0 -19 9 -21 19 -3 9 -5 -8 -4 -38z"/>
<path d="M3470 1160 c0 -27 5 -50 10 -50 6 0 10 23 10 50 0 28 -4 50 -10 50
-5 0 -10 -22 -10 -50z"/>
<path d="M3843 1160 c2 -46 5 -55 22 -58 18 -2 18 -2 3 8 -10 6 -18 22 -18 35
0 14 7 25 18 28 15 4 15 5 0 6 -9 0 -19 9 -21 19 -3 9 -5 -8 -4 -38z"/>
<path d="M1060 1165 c-20 -24 3 -65 35 -65 14 0 25 4 25 8 0 5 -10 8 -21 8
-12 -1 -24 5 -26 12 -3 8 6 12 27 12 25 0 31 3 26 16 -3 9 -6 18 -6 20 0 11
-49 2 -60 -11z m50 -5 c0 -5 -9 -10 -20 -10 -11 0 -20 5 -20 10 0 6 9 10 20
10 11 0 20 -4 20 -10z"/>
<path d="M1151 1147 c-1 -27 4 -39 15 -44 27 -10 49 11 50 48 1 25 1 27 -3 7
-5 -31 -30 -55 -43 -42 -4 5 -10 23 -13 39 -4 27 -4 26 -6 -8z"/>
<path d="M1290 1161 c0 -12 9 -21 25 -25 15 -4 23 -11 19 -17 -3 -6 -15 -9
-25 -6 -11 3 -19 1 -19 -5 0 -5 12 -8 27 -6 37 4 43 33 9 42 -33 8 -34 30 -1
24 13 -3 22 -1 19 3 -3 5 -16 9 -30 9 -17 0 -24 -6 -24 -19z"/>
<path d="M1370 1143 c0 -24 2 -43 4 -43 8 0 12 60 4 72 -4 8 -8 -4 -8 -29z"/>
<path d="M1410 1165 c0 -9 11 -20 25 -27 28 -13 23 -32 -8 -24 -14 3 -17 2
-10 -5 15 -15 47 -7 51 12 2 11 -6 19 -22 23 -34 8 -33 24 2 29 25 4 25 4 -5
6 -24 1 -33 -3 -33 -14z"/>
<path d="M1554 1166 c-12 -32 0 -61 29 -64 15 -2 27 1 27 6 0 5 -9 8 -20 8
-29 -1 -25 19 5 22 18 2 25 9 23 20 -4 22 -56 29 -64 8z m51 -6 c4 -6 -5 -10
-20 -10 -15 0 -24 4 -20 10 3 6 12 10 20 10 8 0 17 -4 20 -10z"/>
<path d="M1646 1164 c-10 -25 -7 -66 4 -59 6 3 10 20 10 36 0 45 33 35 41 -11
l6 -35 2 38 c1 31 4 38 19 35 10 -2 19 -16 24 -38 l6 -35 -1 40 -2 40 -51 2
c-40 2 -53 -1 -58 -13z"/>
<path d="M1805 1173 c33 -8 41 -23 13 -23 -28 0 -41 -19 -28 -39 4 -7 18 -11
31 -9 20 2 24 9 24 38 0 32 -3 35 -30 37 -18 1 -22 -1 -10 -4z m28 -48 c1 -5
-6 -11 -15 -13 -11 -2 -18 3 -18 13 0 17 30 18 33 0z"/>
<path d="M2027 1174 c-4 -4 -7 -20 -7 -35 0 -22 6 -30 26 -35 14 -4 30 -2 35
3 5 5 -2 9 -18 8 -29 0 -45 25 -16 26 16 0 16 1 -2 9 -18 7 -18 9 -3 15 20 8
41 -2 33 -16 -4 -5 -1 -9 5 -9 6 0 10 8 8 18 -3 17 -48 29 -61 16z"/>
<path d="M2164 1166 c-12 -32 0 -61 29 -64 15 -2 27 1 27 6 0 5 -10 8 -21 8
-12 -1 -24 5 -26 12 -3 8 6 12 27 12 25 0 31 3 26 16 -3 9 -6 18 -6 20 0 11
-51 2 -56 -10z m46 -6 c0 -5 -9 -10 -20 -10 -11 0 -20 5 -20 10 0 6 9 10 20
10 11 0 20 -4 20 -10z"/>
<path d="M2257 1173 c-4 -3 -6 -20 -6 -37 l1 -31 7 30 c8 38 35 40 39 2 4 -33
22 -26 22 9 0 15 6 24 15 24 10 0 15 -10 15 -30 0 -16 5 -30 10 -30 11 0 13
30 4 54 -4 12 -20 16 -53 16 -26 0 -51 -3 -54 -7z"/>
<path d="M2396 1165 c-3 -9 -6 -35 -5 -58 1 -28 3 -35 7 -22 5 13 16 20 31 20
31 0 50 28 35 53 -15 23 -60 28 -68 7z m61 -11 c3 -8 -2 -23 -11 -32 -15 -15
-17 -15 -32 0 -21 21 -11 48 16 48 11 0 23 -7 27 -16z"/>
<path d="M2491 1135 l1 -40 11 33 c7 18 19 37 26 42 10 5 6 8 -12 7 -25 -2
-27 -6 -26 -42z"/>
<path d="M2560 1165 c-20 -24 3 -65 35 -65 14 0 25 4 25 8 0 5 -10 8 -22 8
-18 -1 -24 5 -26 27 -3 22 1 27 17 27 25 0 28 -17 4 -23 -11 -3 -6 -5 11 -6
22 -1 27 3 22 15 -3 9 -6 18 -6 20 0 11 -49 2 -60 -11z"/>
<path d="M2650 1161 c0 -10 9 -21 20 -24 11 -3 20 -11 20 -17 0 -7 -8 -10 -20
-7 -11 3 -20 1 -20 -5 0 -14 53 -5 58 9 2 7 -8 18 -22 24 -31 14 -35 34 -6 26
11 -3 20 -1 20 4 0 5 -11 9 -25 9 -18 0 -25 -5 -25 -19z"/>
<path d="M2793 1140 c0 -25 2 -35 4 -22 2 12 2 32 0 45 -2 12 -4 2 -4 -23z"/>
<path d="M2826 1164 c-10 -25 -7 -66 4 -59 6 3 10 20 10 36 0 45 33 35 41 -11
l6 -35 4 35 c2 23 9 35 19 35 9 0 18 -13 22 -35 l6 -35 -1 40 -2 40 -51 2
c-40 2 -53 -1 -58 -13z"/>
<path d="M2971 1166 c-16 -19 -11 -46 12 -60 25 -16 52 4 52 40 0 24 -5 30
-26 32 -14 2 -31 -4 -38 -12z m56 -12 c3 -8 -2 -23 -11 -32 -14 -15 -18 -15
-31 -1 -9 9 -13 23 -9 32 8 21 43 22 51 1z"/>
<path d="M3067 1173 c-13 -12 -7 -23 18 -35 29 -13 23 -32 -8 -22 -17 5 -19 3
-11 -6 7 -6 20 -10 30 -8 26 5 29 34 4 41 -27 7 -26 25 3 30 20 4 20 4 -4 6
-14 0 -29 -2 -32 -6z"/>
<path d="M3193 1145 c0 -22 2 -30 4 -17 2 12 2 30 0 40 -3 9 -5 -1 -4 -23z"/>
<path d="M3234 1168 c-11 -17 -13 -58 -3 -58 4 0 9 12 11 27 2 17 10 29 21 31
14 3 17 -4 17 -34 0 -30 3 -35 12 -26 18 18 -2 66 -29 70 -12 2 -25 -3 -29
-10z"/>
<path d="M3380 1161 c-15 -29 3 -61 35 -61 14 0 25 4 25 8 0 5 -10 8 -21 8
-12 -1 -24 5 -26 12 -3 8 6 12 27 12 25 0 31 4 28 18 -5 26 -54 28 -68 3z m55
-1 c4 -6 -5 -10 -19 -10 -14 0 -26 5 -26 10 0 6 9 10 19 10 11 0 23 -4 26 -10z"/>
<path d="M3510 1145 c0 -19 5 -35 10 -35 6 0 10 16 10 35 0 19 -4 35 -10 35
-5 0 -10 -16 -10 -35z"/>
<path d="M3551 1162 c-14 -26 14 -66 41 -59 12 4 18 1 15 -6 -2 -7 -14 -12
-26 -11 -11 0 -21 -3 -21 -8 0 -17 50 -8 60 11 14 26 13 64 -2 79 -18 18 -56
14 -67 -6z m57 -16 c2 -10 -1 -23 -7 -29 -15 -15 -46 16 -37 38 8 21 40 15 44
-9z"/>
<path d="M3654 1166 c-11 -30 0 -61 25 -64 13 -2 28 1 34 7 7 7 1 10 -18 8
-25 -2 -29 2 -29 23 0 18 5 25 19 25 11 0 19 -6 18 -12 -2 -7 2 -13 8 -13 6 0
9 8 7 18 -4 22 -56 29 -64 8z"/>
<path d="M3752 1168 c-14 -14 -16 -58 -3 -58 5 0 11 12 13 27 2 17 10 29 21
31 13 3 17 -3 17 -27 0 -17 4 -31 9 -31 9 0 5 45 -5 62 -8 12 -38 10 -52 -4z"/>
<path d="M3900 1161 c-8 -15 -8 -27 0 -41 11 -20 44 -27 54 -12 3 5 -4 8 -16
8 -12 -1 -23 5 -25 12 -3 8 6 12 27 12 25 0 31 4 28 18 -5 26 -54 28 -68 3z
m50 -1 c0 -5 -9 -10 -21 -10 -11 0 -17 5 -14 10 3 6 13 10 21 10 8 0 14 -4 14
-10z"/>
<path d="M3990 1165 c0 -9 11 -20 25 -27 28 -13 23 -32 -8 -24 -14 3 -17 2
-10 -5 15 -15 47 -7 51 13 2 12 -5 19 -22 24 -33 8 -34 28 -1 22 14 -3 25 -1
25 3 0 5 -13 9 -30 9 -20 0 -30 -5 -30 -15z"/>
</g>
</svg>
